<?xml version="1.0" standalone="no"?>
<!DOCTYPE svg PUBLIC "-//W3C//DTD SVG 20010904//EN"
 "http://www.w3.org/TR/2001/REC-SVG-20010904/DTD/svg10.dtd">
<svg version="1.0" xmlns="http://www.w3.org/2000/svg"
 width="2279.000000pt" height="458.000000pt" viewBox="0 0 2279.000000 458.000000"
 preserveAspectRatio="xMidYMid meet">

<g transform="translate(0.000000,458.000000) scale(0.100000,-0.100000)"
fill="#000000" stroke="none">
<path d="M2655 4184 c-66 -48 -424 -223 -550 -269 -86 -31 -116 -37 -215 -42
-233 -11 -465 28 -583 97 -47 28 -70 19 -117 -46 -52 -72 -35 -95 105 -147
181 -68 207 -72 435 -72 l215 1 98 37 c54 20 106 37 116 37 10 0 26 9 36 20
10 11 33 22 51 26 18 3 35 12 38 19 2 7 18 16 35 20 16 3 40 14 53 24 35 26
165 91 183 91 20 0 23 -18 35 -235 17 -301 45 -443 124 -630 40 -92 70 -146
188 -333 48 -77 93 -124 116 -120 11 2 40 30 65 63 53 70 55 63 -43 175 -72
82 -161 211 -188 272 -11 26 -25 73 -32 105 -6 32 -17 78 -25 103 -24 78 -44
261 -55 492 -12 263 -19 348 -28 348 -4 0 -30 -16 -57 -36z"/>
<path d="M3400 4049 c-19 -34 -8 -418 13 -479 8 -25 18 -61 22 -80 9 -45 65
-156 120 -240 25 -38 124 -146 239 -260 108 -107 196 -199 196 -205 0 -5 -40
-23 -88 -39 -48 -15 -140 -53 -204 -82 -65 -30 -131 -57 -148 -60 -16 -4 -30
-10 -30 -15 0 -5 -15 -15 -32 -22 -56 -24 -185 -111 -266 -180 -82 -70 -285
-296 -314 -348 -9 -17 -24 -39 -33 -49 -10 -11 -15 -26 -12 -34 10 -24 66 -48
128 -53 l57 -6 27 53 c51 101 145 228 223 301 59 56 112 93 219 152 243 134
329 171 603 262 103 35 125 45 123 60 -1 11 -80 94 -175 186 -198 190 -295
300 -362 411 -57 93 -112 251 -126 362 -12 87 -9 275 4 314 7 19 3 24 -37 42
-25 11 -65 23 -90 26 -40 6 -46 4 -57 -17z"/>
<path d="M6125 3403 c-41 -10 -79 -62 -151 -207 -41 -81 -74 -154 -74 -161 0
-13 70 -25 144 -25 l38 0 -4 -53 c-2 -29 -14 -77 -26 -107 -31 -78 -162 -484
-177 -550 -16 -66 -43 -148 -57 -175 -10 -18 -25 -70 -62 -211 -7 -28 -19 -61
-26 -74 -18 -33 -80 -216 -95 -280 -7 -30 -18 -68 -24 -85 -23 -66 -71 -232
-73 -255 l-3 -25 232 -3 c264 -3 257 -5 268 80 4 29 20 88 36 131 16 43 34
110 40 148 l12 69 256 0 c141 0 293 3 338 7 l83 6 16 -38 c9 -22 21 -64 26
-94 6 -31 18 -76 28 -101 10 -25 23 -68 29 -96 7 -28 21 -65 31 -82 l20 -32
251 0 c235 0 251 1 244 18 -3 9 -13 45 -21 80 -8 34 -21 77 -29 95 -7 17 -26
73 -40 122 -14 50 -33 103 -41 119 -8 16 -26 76 -39 133 -14 58 -32 114 -40
126 -8 12 -15 31 -15 43 0 12 -9 43 -19 70 -24 62 -71 212 -71 226 0 6 -8 29
-19 52 -10 23 -23 64 -29 91 -8 42 -53 181 -128 405 -9 25 -19 66 -24 92 -5
26 -14 57 -21 69 -6 13 -17 45 -24 73 -7 28 -18 65 -24 81 -6 17 -33 95 -59
175 l-47 145 -305 1 c-168 1 -314 0 -325 -3z m375 -683 c11 -21 22 -58 26 -82
3 -23 12 -53 20 -65 7 -12 18 -45 23 -75 5 -29 16 -84 25 -123 16 -67 21 -84
51 -165 7 -19 15 -63 19 -96 l7 -61 -32 -7 c-17 -3 -104 -6 -193 -6 -213 0
-209 -3 -167 121 17 52 35 119 41 149 5 30 14 64 19 75 7 16 70 213 113 353
11 38 21 34 48 -18z"/>
<path d="M10414 3402 c-18 -11 -26 -601 -15 -1122 8 -402 12 -466 30 -549 25
-111 58 -191 118 -283 104 -160 266 -241 563 -283 114 -15 147 -14 340 20 199
35 302 86 416 208 89 95 123 166 165 342 17 73 19 147 25 878 l7 797 -240 0
-241 0 -5 -692 c-4 -660 -5 -699 -26 -813 -25 -136 -49 -185 -114 -239 -60
-49 -109 -67 -197 -73 -64 -4 -84 -1 -135 21 -33 14 -74 36 -92 50 -37 30 -77
110 -92 186 -15 79 -30 507 -37 1073 l-6 487 -227 0 c-124 0 -231 -4 -237 -8z"/>
<path d="M9603 3360 c-28 -12 -35 -69 -31 -260 l3 -145 217 -3 218 -2 5 23
c12 47 1 365 -13 379 -16 16 -364 23 -399 8z"/>
<path d="M14365 3360 c-45 -18 -49 -33 -53 -226 l-4 -184 229 0 230 0 7 38 c3
20 6 112 6 203 l0 166 -46 7 c-67 9 -345 6 -369 -4z"/>
<path d="M796 3241 c-4 -6 5 -69 19 -141 40 -207 61 -637 34 -707 -6 -15 -22
-66 -35 -112 -42 -142 -114 -268 -217 -377 l-89 -94 33 -39 c19 -21 44 -51 57
-66 l22 -27 33 19 c81 47 263 325 317 485 31 90 50 219 50 337 0 83 -31 320
-57 427 -18 78 -14 104 16 104 23 0 132 -33 201 -60 25 -10 124 -35 220 -56
163 -35 187 -38 345 -38 146 0 189 3 307 27 127 25 232 58 299 92 26 14 27 17
17 46 -6 17 -28 49 -49 71 -44 46 -51 46 -159 -3 -208 -95 -526 -102 -830 -19
-80 22 -192 50 -243 60 -21 4 -53 14 -70 22 -95 45 -209 70 -221 49z"/>
<path d="M8475 2807 c-74 -20 -134 -49 -190 -94 -76 -60 -93 -68 -114 -49 -9
9 -23 38 -30 66 -20 79 -25 81 -257 78 l-199 -3 -67 -120 c-80 -143 -113 -219
-104 -241 6 -15 19 -16 110 -10 l104 7 12 -36 c8 -25 12 -202 13 -623 l2 -587
218 -3 217 -2 1 212 c0 329 17 799 29 840 13 46 52 93 93 115 17 8 38 22 46
31 20 19 124 10 185 -16 48 -22 124 -95 132 -129 3 -12 9 -253 12 -535 l7
-513 219 -3 c142 -1 223 1 231 8 21 18 28 319 16 722 -12 395 -20 484 -56 593
-29 90 -71 152 -137 202 -66 50 -89 62 -153 80 -73 20 -278 26 -340 10z"/>
<path d="M13235 2810 c-22 -5 -52 -13 -68 -19 -32 -13 -133 -85 -164 -119 -15
-16 -30 -22 -50 -20 -24 3 -29 9 -37 43 -4 22 -15 57 -24 78 l-15 37 -212 0
c-167 0 -215 -3 -224 -14 -27 -32 -161 -308 -161 -331 0 -14 1 -25 3 -26 1 0
46 -4 100 -8 53 -4 103 -13 109 -19 17 -17 26 -292 27 -804 l1 -418 213 0 214
0 6 197 c4 108 7 316 7 462 0 146 5 295 10 330 15 105 61 163 168 211 57 25
166 -1 229 -55 77 -66 76 -56 82 -622 4 -336 10 -506 17 -513 7 -7 82 -9 225
-8 l214 3 -1 585 c0 635 -3 672 -54 776 -33 68 -148 199 -183 209 -12 4 -35
13 -52 20 -66 30 -285 44 -380 25z"/>
<path d="M9540 2797 c-24 -11 -47 -51 -156 -264 -20 -39 -34 -79 -31 -87 5
-13 25 -16 111 -16 99 0 104 -1 110 -22 3 -13 6 -197 6 -409 0 -212 3 -481 7
-597 l6 -212 214 0 213 0 0 749 c0 411 -3 776 -6 810 l-7 61 -221 0 c-155 0
-228 -4 -246 -13z"/>
<path d="M14302 2800 c-12 -5 -30 -22 -38 -37 -8 -16 -44 -81 -80 -146 -35
-64 -67 -130 -70 -146 -8 -37 12 -42 133 -34 l93 6 0 -340 c0 -187 3 -469 7
-627 l6 -286 216 2 216 3 0 805 0 805 -230 2 c-126 1 -240 -2 -253 -7z"/>
<path d="M15013 2803 c-7 -2 -13 -13 -13 -24 0 -23 42 -150 79 -239 15 -36 42
-112 60 -170 19 -58 42 -123 51 -145 10 -22 27 -61 39 -88 12 -26 21 -53 21
-60 0 -7 9 -30 20 -52 11 -22 20 -47 20 -58 0 -10 9 -35 20 -57 11 -22 20 -46
20 -55 0 -8 18 -57 40 -109 22 -51 40 -101 40 -110 0 -9 9 -33 20 -53 11 -21
20 -46 20 -56 0 -10 7 -32 16 -49 9 -17 22 -51 29 -77 7 -25 29 -82 49 -126
l35 -80 193 -3 c106 -2 212 0 235 3 38 5 43 10 66 58 14 29 35 84 47 122 46
148 57 178 85 235 13 25 37 90 55 145 18 55 43 121 56 147 13 26 24 54 24 62
0 9 9 30 20 48 11 18 20 43 20 55 0 23 30 112 60 178 51 115 60 137 60 155 0
11 9 34 20 52 11 18 20 41 20 52 0 10 18 58 40 107 55 121 69 177 50 189 -20
13 -441 13 -474 0 -21 -7 -31 -27 -60 -119 -20 -61 -36 -119 -36 -128 0 -17
-7 -41 -59 -203 -12 -36 -21 -76 -21 -90 0 -14 -9 -42 -20 -63 -11 -20 -20
-47 -20 -59 0 -13 -9 -50 -19 -83 -11 -33 -24 -78 -29 -100 -5 -22 -15 -53
-21 -70 -6 -16 -13 -42 -16 -57 -13 -68 -59 -3 -104 148 -12 39 -21 81 -21 95
0 13 -9 44 -20 68 -11 24 -20 55 -20 70 0 14 -7 40 -16 56 -9 17 -27 71 -40
120 -14 50 -38 133 -54 185 -17 52 -37 128 -46 168 l-16 72 -246 -1 c-136 0
-253 -3 -259 -6z"/>
<path d="M17175 2782 c-223 -77 -334 -194 -408 -429 -35 -110 -47 -215 -47
-415 0 -120 4 -178 14 -205 8 -21 17 -54 19 -74 3 -20 28 -83 55 -140 42 -88
60 -114 118 -169 125 -118 229 -153 465 -158 261 -5 352 28 510 187 53 53 104
112 112 131 9 19 25 50 37 67 l22 33 -49 21 c-69 30 -245 89 -265 89 -9 0 -52
-29 -94 -65 -43 -35 -92 -67 -108 -71 -17 -3 -44 -13 -61 -22 -26 -13 -34 -13
-80 1 -27 9 -69 21 -91 27 -48 12 -120 82 -129 127 -3 15 -11 45 -16 67 -8 28
-7 42 1 50 8 8 144 13 451 16 426 5 441 6 456 25 13 17 14 45 9 170 -11 316
-60 464 -202 611 -111 115 -233 154 -484 153 -142 0 -161 -2 -235 -27z m303
-353 c55 -11 123 -62 147 -110 8 -15 15 -46 15 -67 0 -36 -3 -40 -31 -46 -39
-7 -402 -8 -422 -1 -12 5 -12 12 1 53 18 57 62 115 115 153 44 32 89 37 175
18z"/>
<path d="M18340 2797 c-30 -15 -159 -266 -167 -326 l-5 -38 92 -5 c50 -3 97
-11 103 -17 9 -9 13 -171 15 -616 l3 -605 229 0 230 0 1 288 c0 374 14 696 30
746 22 64 73 109 167 144 71 27 97 32 171 32 130 0 125 -7 129 199 2 115 0
177 -8 191 -11 21 -17 22 -148 18 l-137 -4 -87 -43 c-97 -48 -111 -47 -126 13
l-8 31 -230 2 c-167 2 -236 0 -254 -10z"/>
<path d="M19971 2800 c-78 -17 -225 -96 -290 -155 -107 -100 -137 -189 -129
-381 4 -91 8 -111 35 -161 37 -70 128 -145 249 -203 78 -37 101 -45 209 -71
88 -21 172 -64 189 -96 13 -27 13 -33 0 -59 -26 -50 -53 -71 -128 -98 -71 -26
-73 -26 -151 -12 -44 8 -111 18 -150 21 -38 4 -96 14 -127 22 -73 20 -80 14
-103 -75 -10 -37 -28 -100 -41 -139 -15 -43 -22 -83 -18 -97 10 -39 67 -61
263 -97 30 -5 140 -8 245 -6 263 5 338 25 467 123 73 56 159 155 169 197 5 17
16 52 25 77 24 64 15 253 -17 336 -33 86 -147 185 -258 225 -25 8 -61 23 -80
32 -19 9 -60 21 -91 27 -81 16 -196 73 -211 106 -17 37 5 72 65 103 48 24 49
24 175 13 70 -7 153 -19 185 -27 78 -21 89 -13 151 106 27 52 60 110 73 129
13 19 23 40 23 47 0 18 -53 43 -145 69 -44 12 -93 27 -110 34 -38 15 -414 23
-474 10z"/>
<path d="M21455 2803 c-124 -30 -216 -83 -308 -175 -95 -97 -145 -191 -179
-343 -20 -88 -23 -126 -22 -310 0 -171 4 -218 17 -254 9 -24 17 -54 17 -68 0
-13 17 -63 38 -110 32 -74 49 -99 122 -173 92 -93 143 -123 271 -160 68 -20
92 -22 250 -18 l174 4 81 37 c45 20 87 37 93 37 7 0 56 44 109 98 69 69 107
117 132 165 34 66 34 69 16 82 -11 8 -40 22 -65 31 -25 8 -74 26 -109 40 -34
13 -81 24 -103 24 -35 0 -48 -7 -97 -54 -59 -55 -156 -106 -201 -106 -42 1
-179 44 -209 67 -15 11 -40 46 -55 77 -22 45 -27 68 -25 112 l3 55 458 -1 457
-1 0 201 c0 150 -3 208 -14 228 -7 15 -16 51 -19 81 -4 30 -13 61 -20 70 -8 9
-19 31 -26 50 -12 36 -69 116 -130 184 -41 46 -172 112 -250 127 -53 10 -367
12 -406 3z m278 -376 c57 -25 147 -144 147 -196 0 -16 -9 -21 -42 -26 -57 -8
-424 -2 -434 7 -4 4 5 37 20 73 29 68 87 131 128 139 13 3 32 7 43 9 43 10
107 6 138 -6z"/>
<path d="M1755 2551 c-6 -5 -33 -16 -61 -25 l-52 -17 -4 -222 c-4 -191 -8
-230 -25 -278 -64 -174 -230 -449 -423 -700 -56 -72 -104 -137 -106 -144 -4
-9 10 -15 48 -20 29 -4 76 -13 103 -20 28 -7 82 -16 120 -20 39 -4 145 -26
237 -50 166 -44 294 -98 393 -165 22 -15 58 -39 80 -53 74 -49 247 -269 266
-339 12 -44 35 -54 111 -45 78 10 107 49 75 104 -74 131 -155 240 -244 329
-66 66 -212 168 -278 195 -122 50 -296 93 -520 129 -72 11 -134 25 -138 29 -5
5 28 56 72 115 294 391 399 652 418 1046 5 111 4 128 -11 143 -19 18 -46 22
-61 8z"/>
<path d="M2090 1788 c0 -101 4 -106 88 -118 33 -4 68 -13 78 -19 10 -6 55 -24
98 -41 44 -17 111 -52 150 -78 142 -93 363 -339 580 -645 61 -87 103 -137 114
-136 11 0 33 34 67 102 27 56 62 120 76 142 15 22 49 78 75 124 56 96 175 243
257 318 32 29 107 82 167 118 96 58 123 69 232 95 68 17 149 35 181 41 l57 10
0 85 0 84 -68 0 c-85 0 -280 -54 -384 -106 -107 -54 -261 -159 -303 -207 -63
-73 -136 -171 -156 -209 -10 -20 -32 -56 -48 -80 -17 -25 -56 -97 -87 -161
-49 -101 -59 -115 -74 -107 -10 5 -54 63 -97 127 -75 113 -318 413 -334 413
-4 0 -43 28 -86 63 -103 80 -451 253 -530 263 l-53 7 0 -85z"/>
</g>
</svg>
